{
  "asset": {"version": "2.0", "generator": "gen_gltf"},
  "buffers": [{"uri": "TestShapes.bin", "byteLength": 17836}],
  "bufferViews": [
    {"buffer": 0, "byteOffset": 0, "byteLength": 288},
    {"buffer": 0, "byteOffset": 288, "byteLength": 192},
    {"buffer": 0, "byteOffset": 480, "byteLength": 72},
    {"buffer": 0, "byteOffset": 552, "byteLength": 6732},
    {"buffer": 0, "byteOffset": 7284, "byteLength": 4488},
    {"buffer": 0, "byteOffset": 11772, "byteLength": 5760},
    {"buffer": 0, "byteOffset": 17532, "byteLength": 96},
    {"buffer": 0, "byteOffset": 17628, "byteLength": 64},
    {"buffer": 0, "byteOffset": 17692, "byteLength": 144}
  ],
  "accessors": [
    {"bufferView": 0, "componentType": 5126, "count": 24, "type": "VEC3", "min": [-0.5, -0.5, -0.5], "max": [0.5, 0.5, 0.5]},
    {"bufferView": 1, "componentType": 5126, "count": 24, "type": "VEC2"},
    {"bufferView": 2, "componentType": 5123, "count": 36, "type": "SCALAR"},
    {"bufferView": 3, "componentType": 5126, "count": 561, "type": "VEC3", "min": [-0.5, -0.5, -0.5], "max": [0.5, 0.5, 0.5]},
    {"bufferView": 4, "componentType": 5126, "count": 561, "type": "VEC2"},
    {"bufferView": 5, "componentType": 5123, "count": 2880, "type": "SCALAR"},
    {"bufferView": 6, "componentType": 5126, "count": 8, "type": "VEC3", "min": [-6.0, -0.1, -6.0], "max": [6.0, 0.1, 6.0]},
    {"bufferView": 7, "componentType": 5126, "count": 8, "type": "VEC2"},
    {"bufferView": 8, "componentType": 5123, "count": 72, "type": "SCALAR"}
  ],
  "meshes": [
    {"name": "cube", "primitives": [{"attributes": {"POSITION": 0, "TEXCOORD_0": 1}, "indices": 2, "material": 0}]},
    {"name": "sphere", "primitives": [{"attributes": {"POSITION": 3, "TEXCOORD_0": 4}, "indices": 5, "material": 0}]},
    {"name": "plane", "primitives": [{"attributes": {"POSITION": 6, "TEXCOORD_0": 7}, "indices": 8, "material": 0}]}
  ],
  "images": [{"name": "test", "uri": "TestTexture.tga"}],
  "textures": [{"source": 0}],
  "materials": [{"name": "test", "pbrMetallicRoughness": {"baseColorTexture": {"index": 0}}}]
}
